# xmcd
# 
# Track frame offsets:
#     150
#     20340
#     33512
#     46653
# 
# Disc length: 835
# 
# Revision: 0
# Processed by: cddbd v1.5.2PL0 Copyright (c) Steve Scherf et al.
# Submitted via: fre:ac v1.0.17
# 
DISCID=24034104
DTITLE=Radkey - Devil Fruit EP
DYEAR=2014
DGENRE=Gothic Rock
TTITLE0=Romance Dawn
TTITLE1=Little Man
TTITLE2=Start Freaking Out
TTITLE3=Overwhelmed
EXTD=
EXTT0=
EXTT1=
EXTT2=
EXTT3=
PLAYORDER=
